<svg width="1782" height="600" viewBox="0 0 1782 600" fill="none" xmlns="http://www.w3.org/2000/svg">
<path d="M1781.74 598.898H1627.14L1359.87 142.932L1170.76 462.147C1045.16 623.862 811.379 641.251 665.763 496.682L758.261 400.262C784.711 410.199 803.415 432.995 833.274 444.174C1067.39 531.85 1140.77 191.714 1247.18 56.3267C1305.02 -17.2729 1411.45 -19.4892 1469.54 54.0617L1781.69 598.898H1781.74Z" fill="url(#paint0_linear_3069_98)"/>
<path d="M162.445 1.27148L419.289 457.336C422.26 459.601 427.058 451.198 428.86 448.617C495.032 354.267 542.888 231.325 610.984 138.023C729.323 -24.1304 978.373 -43.4192 1116.12 103.488L1023.79 200.102C964.126 150.078 899.781 128.914 822.747 150.663C689.771 188.193 618.12 439.021 534.535 543.843C472.309 621.9 362.981 615.543 306.917 535.636L0 1.27148H162.445Z" fill="url(#paint1_linear_3069_98)"/>
<defs>
<linearGradient id="paint0_linear_3069_98" x1="760.594" y1="755.937" x2="2700.56" y2="24.6826" gradientUnits="userSpaceOnUse">
<stop stop-color="#C7A81E"/>
<stop offset="1" stop-color="white"/>
</linearGradient>
<linearGradient id="paint1_linear_3069_98" x1="94.8442" y1="755.86" x2="2034.14" y2="23.4571" gradientUnits="userSpaceOnUse">
<stop stop-color="#C7A81E"/>
<stop offset="1" stop-color="white"/>
</linearGradient>
</defs>
</svg>
