<svg width="1194" height="408" viewBox="0 0 1194 408" fill="none" xmlns="http://www.w3.org/2000/svg">
<path d="M1193.76 407.729H1088.5L906.546 97.3077L777.798 314.629C692.292 424.724 533.135 436.563 434 338.141L496.973 272.498C514.98 279.263 527.713 294.782 548.041 302.393C707.43 362.083 757.388 130.519 829.828 38.3471C869.207 -11.7594 941.664 -13.2682 981.209 36.8052L1193.72 407.729H1193.76Z" fill="url(#paint0_linear_3730_15)"/>
<path d="M110.592 0.863281L285.451 311.351C287.474 312.893 290.74 307.173 291.967 305.415C337.017 241.182 369.598 157.483 415.957 93.9632C496.522 -16.4303 666.075 -29.5621 759.855 70.452L696.998 136.227C656.375 102.171 612.569 87.7621 560.125 102.569C469.595 128.119 420.815 298.883 363.911 370.245C321.547 423.386 247.117 419.059 208.948 364.658L0 0.863281H110.592Z" fill="url(#paint1_linear_3730_15)"/>
<defs>
<linearGradient id="paint0_linear_3730_15" x1="498.561" y1="514.641" x2="1819.29" y2="16.8038" gradientUnits="userSpaceOnUse">
<stop stop-color="#C7A81E"/>
<stop offset="1" stop-color="white"/>
</linearGradient>
<linearGradient id="paint1_linear_3730_15" x1="64.5698" y1="514.586" x2="1384.84" y2="15.9672" gradientUnits="userSpaceOnUse">
<stop stop-color="#C7A81E"/>
<stop offset="1" stop-color="white"/>
</linearGradient>
</defs>
</svg>
